<?xml version="1.0" encoding="UTF-8" standalone="no"?>
<!-- Created with Inkscape (http://www.inkscape.org/) -->

<svg
   xmlns:osb="http://www.openswatchbook.org/uri/2009/osb"
   xmlns:dc="http://purl.org/dc/elements/1.1/"
   xmlns:cc="http://creativecommons.org/ns#"
   xmlns:rdf="http://www.w3.org/1999/02/22-rdf-syntax-ns#"
   xmlns:svg="http://www.w3.org/2000/svg"
   xmlns="http://www.w3.org/2000/svg"
   xmlns:sodipodi="http://sodipodi.sourceforge.net/DTD/sodipodi-0.dtd"
   xmlns:inkscape="http://www.inkscape.org/namespaces/inkscape"
   version="1.1"
   id="svg2"
   width="200"
   height="200"
   viewBox="0 0 200 200"
   sodipodi:docname="arcolinux.svg"
   inkscape:version="0.92.2 2405546, 2018-03-11"
   inkscape:export-filename="/home/erik/Insync/Arcolinux/arcolinux.google-plus-beta.png"
   inkscape:export-xdpi="96"
   inkscape:export-ydpi="96">
  <metadata
     id="metadata8">
    <rdf:RDF>
      <cc:Work
         rdf:about="">
        <dc:format>image/svg+xml</dc:format>
        <dc:type
           rdf:resource="http://purl.org/dc/dcmitype/StillImage" />
        <dc:title></dc:title>
      </cc:Work>
    </rdf:RDF>
  </metadata>
  <defs
     id="defs6">
    <linearGradient
       id="linearGradient2351"
       osb:paint="solid">
      <stop
         style="stop-color:#376ee5;stop-opacity:1;"
         offset="0"
         id="stop2349" />
    </linearGradient>
  </defs>
  <sodipodi:namedview
     pagecolor="#ffffff"
     bordercolor="#666666"
     borderopacity="1"
     objecttolerance="10"
     gridtolerance="10"
     guidetolerance="10"
     inkscape:pageopacity="0"
     inkscape:pageshadow="2"
     inkscape:window-width="1920"
     inkscape:window-height="1052"
     id="namedview4"
     showgrid="false"
     inkscape:zoom="1.5577558"
     inkscape:cx="129.02279"
     inkscape:cy="0.69263896"
     inkscape:window-x="1920"
     inkscape:window-y="0"
     inkscape:window-maximized="1"
     inkscape:current-layer="svg2"
     showguides="true"
     inkscape:guide-bbox="true">
    <sodipodi:guide
       position="6465.7119,4606.6272"
       orientation="1,0"
       id="guide940"
       inkscape:locked="false" />
  </sodipodi:namedview>
  <path
     style="fill:#6790eb;fill-opacity:1;stroke-width:0.7684986"
     d="m 21.245073,175.58308 c 0,-0.52037 75.48206,-144.105089 78.012469,-148.398163 l 1.748108,-2.965878 1.90928,3.350123 c 1.05012,1.842524 8.74582,16.491427 17.10151,32.553023 8.35571,16.061629 25.20488,48.354445 37.44259,71.761805 17.17225,32.84576 22.01359,42.70888 21.21293,43.21624 -0.57061,0.36159 -7.44703,0.66274 -15.28093,0.66926 l -14.24348,0.0115 -4.20048,-4.25926 C 134.40875,160.83598 115.9896,151.14812 95.405134,145.46433 l -9.221936,-2.54637 11.527459,-0.57821 c 10.829083,-0.54315 23.045263,-0.17698 29.724293,0.89106 2.2324,0.357 2.93689,0.21073 2.93689,-0.60974 0,-2.02701 -28.25778,-53.680446 -29.36674,-53.680446 -0.80819,0 -6.512731,9.943568 -28.657434,49.952376 -10.878562,19.65434 -19.839233,35.80803 -19.91264,35.89709 -0.327812,0.3978 -31.189953,1.18222 -31.189953,0.79268 z"
     id="path4559-6-7-5"
     inkscape:connector-curvature="0" />
</svg>
